<svg width="641" height="127" viewBox="0 0 641 127" fill="none" xmlns="http://www.w3.org/2000/svg">
<path d="M105.406 101V95.0938L113.047 93.7812V40.0156L105.406 38.7031V32.75H113.047H125.375L147.359 84.5469H147.641L168.922 32.75H189.5V38.7031L181.859 40.0156V93.7812L189.5 95.0938V101H164.984V95.0938L173.047 93.7812V74V45.3594L172.812 45.3125L150.641 98.5625H144.5L121.578 45.4062L121.344 45.4531L121.672 74V93.7812L129.922 95.0938V101H105.406ZM220.484 101.984C215.797 101.984 211.719 100.922 208.25 98.7969C204.781 96.6406 202.094 93.6562 200.188 89.8438C198.312 86.0312 197.375 81.625 197.375 76.625V74.5625C197.375 69.75 198.359 65.4531 200.328 61.6719C202.328 57.8594 204.969 54.8594 208.25 52.6719C211.562 50.4531 215.172 49.3438 219.078 49.3438C223.641 49.3438 227.453 50.2812 230.516 52.1562C233.609 54.0312 235.938 56.6719 237.5 60.0781C239.062 63.4531 239.844 67.4375 239.844 72.0312V77.7969H206.938L206.797 78.0312C206.859 81.2812 207.422 84.1719 208.484 86.7031C209.578 89.2031 211.141 91.1719 213.172 92.6094C215.203 94.0469 217.641 94.7656 220.484 94.7656C223.609 94.7656 226.344 94.3281 228.688 93.4531C231.062 92.5469 233.109 91.3125 234.828 89.75L238.438 95.75C236.625 97.5 234.219 98.9844 231.219 100.203C228.25 101.391 224.672 101.984 220.484 101.984ZM207.219 70.5781H230.609V69.3594C230.609 66.9219 230.172 64.75 229.297 62.8438C228.453 60.9062 227.172 59.3906 225.453 58.2969C223.766 57.1719 221.641 56.6094 219.078 56.6094C217.016 56.6094 215.141 57.2188 213.453 58.4375C211.766 59.625 210.375 61.25 209.281 63.3125C208.188 65.375 207.469 67.7188 207.125 70.3438L207.219 70.5781ZM247.062 101V95.0938L254.703 93.7812V57.5469L247.062 56.2344V50.2812H262.953L263.609 57.8281C265.297 55.1406 267.406 53.0625 269.938 51.5938C272.5 50.0938 275.406 49.3438 278.656 49.3438C284.125 49.3438 288.359 50.9531 291.359 54.1719C294.359 57.3594 295.859 62.2969 295.859 68.9844V93.7812L303.5 95.0938V101H278.984V95.0938L286.625 93.7812V69.1719C286.625 64.7031 285.734 61.5312 283.953 59.6562C282.203 57.7812 279.516 56.8438 275.891 56.8438C273.234 56.8438 270.875 57.4844 268.812 58.7656C266.781 60.0469 265.156 61.7969 263.938 64.0156V93.7812L271.578 95.0938V101H247.062ZM308.891 101V95.0938L316.531 93.7812V35.1406L308.891 33.8281V27.875H325.766V57.0312C327.516 54.5938 329.656 52.7031 332.188 51.3594C334.719 50.0156 337.531 49.3438 340.625 49.3438C346.062 49.3438 350.281 50.9688 353.281 54.2188C356.281 57.4688 357.781 62.4688 357.781 69.2188V93.7812L365.422 95.0938V101H340.906V95.0938L348.547 93.7812V69.125C348.547 64.9375 347.641 61.8438 345.828 59.8438C344.047 57.8438 341.375 56.8438 337.812 56.8438C335.281 56.8438 332.969 57.4531 330.875 58.6719C328.812 59.8594 327.109 61.4844 325.766 63.5469V93.7812L333.406 95.0938V101H308.891ZM388.156 101.984C382.875 101.984 378.859 100.703 376.109 98.1406C373.359 95.5469 371.984 91.9062 371.984 87.2188C371.984 82.4062 373.953 78.5469 377.891 75.6406C381.828 72.7031 387.297 71.2344 394.297 71.2344H403.344V66.2656C403.344 63.2031 402.406 60.8281 400.531 59.1406C398.688 57.4531 396.078 56.6094 392.703 56.6094C390.578 56.6094 388.734 56.875 387.172 57.4062C385.609 57.9062 384.188 58.6094 382.906 59.5156L381.922 66.5938H374.797V54.9688C377.078 53.125 379.734 51.7344 382.766 50.7969C385.797 49.8281 389.156 49.3438 392.844 49.3438C399 49.3438 403.828 50.8125 407.328 53.75C410.828 56.6875 412.578 60.8906 412.578 66.3594V90.7812C412.578 91.4375 412.578 92.0781 412.578 92.7031C412.609 93.3281 412.656 93.9531 412.719 94.5781L417.641 95.0938V101H404.375C404.094 99.625 403.875 98.3906 403.719 97.2969C403.562 96.2031 403.453 95.1094 403.391 94.0156C401.609 96.2969 399.375 98.2031 396.688 99.7344C394.031 101.234 391.188 101.984 388.156 101.984ZM389.516 94.25C392.578 94.25 395.375 93.5156 397.906 92.0469C400.438 90.5781 402.25 88.8125 403.344 86.75V77.5625H393.969C389.719 77.5625 386.531 78.5781 384.406 80.6094C382.281 82.6406 381.219 84.9062 381.219 87.4062C381.219 89.625 381.906 91.3281 383.281 92.5156C384.656 93.6719 386.734 94.25 389.516 94.25ZM447.125 101.984C441.625 101.984 437.328 100.219 434.234 96.6875C431.141 93.1562 429.594 87.6562 429.594 80.1875V57.5469L423.781 56.2344V50.2812H429.594H438.828V80.2812C438.828 85.6875 439.625 89.4062 441.219 91.4375C442.812 93.4688 445.297 94.4844 448.672 94.4844C451.953 94.4844 454.656 93.8281 456.781 92.5156C458.938 91.1719 460.562 89.2812 461.656 86.8438V57.5469L454.859 56.2344V50.2812H461.656H470.891V93.7812L476.703 95.0938V101H462.594L461.984 93.5C460.391 96.2188 458.328 98.3125 455.797 99.7812C453.297 101.25 450.406 101.984 447.125 101.984ZM503.75 101.984C500.344 101.984 497.156 101.641 494.188 100.953C491.219 100.266 488.062 99.2031 484.719 97.7656L484.625 85.7188H491.609L493.344 92.9844C495.094 93.7031 496.781 94.2344 498.406 94.5781C500.062 94.8906 501.844 95.0469 503.75 95.0469C507.5 95.0469 510.188 94.3281 511.812 92.8906C513.438 91.4531 514.25 89.6719 514.25 87.5469C514.25 85.5469 513.422 83.8594 511.766 82.4844C510.141 81.0781 507.172 79.8906 502.859 78.9219C496.734 77.5156 492.219 75.6406 489.312 73.2969C486.438 70.9219 485 67.7656 485 63.8281C485 61.0781 485.797 58.625 487.391 56.4688C488.984 54.2812 491.203 52.5469 494.047 51.2656C496.891 49.9844 500.203 49.3438 503.984 49.3438C507.828 49.3438 511.109 49.7812 513.828 50.6562C516.578 51.5312 518.969 52.7031 521 54.1719L521.469 65.75H514.531L513.031 59C511.938 58.1875 510.641 57.5625 509.141 57.125C507.641 56.6875 505.922 56.4688 503.984 56.4688C501.109 56.4688 498.766 57.1406 496.953 58.4844C495.172 59.8281 494.281 61.5156 494.281 63.5469C494.281 64.7344 494.531 65.7656 495.031 66.6406C495.562 67.5156 496.562 68.3125 498.031 69.0312C499.5 69.7188 501.656 70.4062 504.5 71.0938C511.562 72.75 516.484 74.8594 519.266 77.4219C522.078 79.9844 523.484 83.1406 523.484 86.8906C523.484 91.1719 521.891 94.7656 518.703 97.6719C515.547 100.547 510.562 101.984 503.75 101.984ZM554.234 101.984C549.547 101.984 545.469 100.922 542 98.7969C538.531 96.6406 535.844 93.6562 533.938 89.8438C532.062 86.0312 531.125 81.625 531.125 76.625V74.5625C531.125 69.75 532.109 65.4531 534.078 61.6719C536.078 57.8594 538.719 54.8594 542 52.6719C545.312 50.4531 548.922 49.3438 552.828 49.3438C557.391 49.3438 561.203 50.2812 564.266 52.1562C567.359 54.0312 569.688 56.6719 571.25 60.0781C572.812 63.4531 573.594 67.4375 573.594 72.0312V77.7969H540.688L540.547 78.0312C540.609 81.2812 541.172 84.1719 542.234 86.7031C543.328 89.2031 544.891 91.1719 546.922 92.6094C548.953 94.0469 551.391 94.7656 554.234 94.7656C557.359 94.7656 560.094 94.3281 562.438 93.4531C564.812 92.5469 566.859 91.3125 568.578 89.75L572.188 95.75C570.375 97.5 567.969 98.9844 564.969 100.203C562 101.391 558.422 101.984 554.234 101.984ZM540.969 70.5781H564.359V69.3594C564.359 66.9219 563.922 64.75 563.047 62.8438C562.203 60.9062 560.922 59.3906 559.203 58.2969C557.516 57.1719 555.391 56.6094 552.828 56.6094C550.766 56.6094 548.891 57.2188 547.203 58.4375C545.516 59.625 544.125 61.25 543.031 63.3125C541.938 65.375 541.219 67.7188 540.875 70.3438L540.969 70.5781ZM580.812 101V95.0938L588.453 93.7812V57.5469L580.812 56.2344V50.2812H596.703L597.359 57.8281C599.047 55.1406 601.156 53.0625 603.688 51.5938C606.25 50.0938 609.156 49.3438 612.406 49.3438C617.875 49.3438 622.109 50.9531 625.109 54.1719C628.109 57.3594 629.609 62.2969 629.609 68.9844V93.7812L637.25 95.0938V101H612.734V95.0938L620.375 93.7812V69.1719C620.375 64.7031 619.484 61.5312 617.703 59.6562C615.953 57.7812 613.266 56.8438 609.641 56.8438C606.984 56.8438 604.625 57.4844 602.562 58.7656C600.531 60.0469 598.906 61.7969 597.688 64.0156V93.7812L605.328 95.0938V101H580.812Z" fill="white"/>
<path d="M38.9085 122.584C37.0259 124.472 33.9742 124.472 32.0915 122.584L1.4112 91.8106C-0.469886 89.9221 -0.470912 86.8609 1.4112 84.9732C3.29356 83.0855 6.34526 83.0863 8.22814 84.9732L30.6793 107.492V61.3772H15.4716C12.7795 61.3772 10.5971 59.2388 10.5971 56.6007C10.5971 53.9628 12.7795 51.8246 15.4716 51.8246H30.6793V41.8002C30.6793 41.758 30.6798 41.7159 30.6811 41.674C22.1839 39.523 15.8953 31.815 15.8953 22.6358C15.8953 11.7912 24.6726 3 35.5 3C46.3271 3.00003 55.1044 11.7912 55.1044 22.6358C55.1044 31.815 48.8161 39.5227 40.3192 41.674C40.3202 41.7159 40.3207 41.758 40.3207 41.8002V51.8246H54.4686C57.1607 51.8246 59.3434 53.9628 59.3434 56.6007C59.3434 59.2388 57.1607 61.3772 54.4686 61.3772H40.3207V107.492L62.7719 84.9732C64.6545 83.0863 67.7067 83.0853 69.5888 84.9732C71.4709 86.8609 71.4699 89.9221 69.5888 91.8106L38.9085 122.584ZM35.5 32.4539C40.9134 32.4539 45.3022 28.0581 45.3022 22.6358C45.302 17.2135 40.9134 12.8179 35.5 12.8179C30.0863 12.8179 25.6978 17.2135 25.6978 22.6358C25.6978 28.0581 30.0863 32.4539 35.5 32.4539Z" fill="#E1FF00"/>
</svg>
