<svg width="277" height="471" viewBox="0 0 277 471" fill="none" xmlns="http://www.w3.org/2000/svg">
<path d="M151.697 465.487C144.357 472.838 132.458 472.838 125.118 465.487L5.50221 345.701C-1.83217 338.35 -1.83589 326.434 5.50221 319.086C12.8403 311.738 24.739 311.741 32.0794 319.086L119.613 406.743L119.613 227.237L60.3206 227.237C49.8243 227.237 41.3157 218.913 41.3157 208.645C41.3158 198.377 49.8244 190.053 60.3206 190.053L119.613 190.053L119.613 151.032C119.613 150.868 119.615 150.704 119.619 150.541C86.4904 142.168 61.9729 112.164 61.9729 76.4336C61.9731 34.2203 96.1941 -1.57904e-05 138.408 -1.21e-05C180.621 2.2108e-05 214.842 34.2203 214.842 76.4336C214.842 112.164 190.325 142.168 157.197 150.541C157.201 150.704 157.202 150.868 157.202 151.032L157.202 190.053L212.363 190.053C222.859 190.053 231.368 198.376 231.368 208.645C231.368 218.913 222.859 227.237 212.363 227.237L157.202 227.237L157.202 406.743L244.736 319.086C252.076 311.741 263.976 311.737 271.314 319.086C278.652 326.434 278.648 338.35 271.314 345.701L151.697 465.487ZM138.408 114.651C159.514 114.651 176.624 97.5403 176.624 76.4336C176.624 55.327 159.514 38.2168 138.408 38.2168C117.301 38.2168 100.191 55.327 100.191 76.4336C100.191 97.5403 117.301 114.651 138.408 114.651Z" fill="#E1FF00"/>
</svg>

